<svg class="main-svg" xmlns="http://www.w3.org/2000/svg" xmlns:xlink="http://www.w3.org/1999/xlink" width="1120" height="710" style="" viewBox="0 0 1120 710"><rect x="0" y="0" width="1120" height="710" style="fill: rgb(255, 255, 255); fill-opacity: 1;"/><defs id="defs-6a642d"><g class="clips"><clipPath id="clip6a642dxyplot" class="plotclip"><rect width="765" height="470"/></clipPath><clipPath class="axesclip" id="clip6a642dx"><rect x="250" y="0" width="765" height="710"/></clipPath><clipPath class="axesclip" id="clip6a642dy"><rect x="0" y="110" width="1120" height="470"/></clipPath><clipPath class="axesclip" id="clip6a642dxy"><rect x="250" y="110" width="765" height="470"/></clipPath></g><g class="gradients"/><g class="patterns"/></defs><g class="bglayer"/><g class="layer-below"><g class="imagelayer"/><g class="shapelayer"/></g><g class="cartesianlayer"><g class="subplot xy"><g class="layer-subplot"><g class="shapelayer"/><g class="imagelayer"/></g><g class="minor-gridlayer"><g class="x"/><g class="y"/></g><g class="gridlayer"><g class="x"><path class="xgrid crisp" transform="translate(403,0)" d="M0,110v470" style="stroke: rgb(231, 236, 242); stroke-opacity: 1; stroke-width: 1px;"/><path class="xgrid crisp" transform="translate(556,0)" d="M0,110v470" style="stroke: rgb(231, 236, 242); stroke-opacity: 1; stroke-width: 1px;"/><path class="xgrid crisp" transform="translate(709,0)" d="M0,110v470" style="stroke: rgb(231, 236, 242); stroke-opacity: 1; stroke-width: 1px;"/><path class="xgrid crisp" transform="translate(862,0)" d="M0,110v470" style="stroke: rgb(231, 236, 242); stroke-opacity: 1; stroke-width: 1px;"/></g><g class="y"><path class="ygrid crisp" transform="translate(0,549)" d="M250,0h765" style="stroke: rgb(231, 236, 242); stroke-opacity: 1; stroke-width: 1px;"/><path class="ygrid crisp" transform="translate(0,498)" d="M250,0h765" style="stroke: rgb(231, 236, 242); stroke-opacity: 1; stroke-width: 1px;"/><path class="ygrid crisp" transform="translate(0,447)" d="M250,0h765" style="stroke: rgb(231, 236, 242); stroke-opacity: 1; stroke-width: 1px;"/><path class="ygrid crisp" transform="translate(0,396)" d="M250,0h765" style="stroke: rgb(231, 236, 242); stroke-opacity: 1; stroke-width: 1px;"/><path class="ygrid crisp" transform="translate(0,345)" d="M250,0h765" style="stroke: rgb(231, 236, 242); stroke-opacity: 1; stroke-width: 1px;"/><path class="ygrid crisp" transform="translate(0,294)" d="M250,0h765" style="stroke: rgb(231, 236, 242); stroke-opacity: 1; stroke-width: 1px;"/><path class="ygrid crisp" transform="translate(0,243)" d="M250,0h765" style="stroke: rgb(231, 236, 242); stroke-opacity: 1; stroke-width: 1px;"/><path class="ygrid crisp" transform="translate(0,192)" d="M250,0h765" style="stroke: rgb(231, 236, 242); stroke-opacity: 1; stroke-width: 1px;"/><path class="ygrid crisp" transform="translate(0,141)" d="M250,0h765" style="stroke: rgb(231, 236, 242); stroke-opacity: 1; stroke-width: 1px;"/></g></g><g class="zerolinelayer"><path class="xzl zl crisp" transform="translate(250,0)" d="M0,110v470" style="stroke: rgb(202, 211, 222); stroke-opacity: 1; stroke-width: 2px;"/></g><g class="layer-between"><g class="shapelayer"/><g class="imagelayer"/></g><path class="xlines-below"/><path class="ylines-below"/><g class="overlines-below"/><g class="xaxislayer-below"/><g class="yaxislayer-below"/><g class="overaxes-below"/><g class="overplot"><g class="xy" transform="translate(250,110)" clip-path="url(#clip6a642dxyplot)"><g class="scatterlayer mlayer"><g class="trace scatter trace56179b" style="stroke-miterlimit: 2; opacity: 1;"><g class="fills"/><g class="errorbars"><g class="errorbar"><path class="xerror" d="M699.43,27v8m0,-4H637.01m0,-4v8" style="vector-effect: none; stroke-width: 2px; stroke: rgb(53, 102, 197); stroke-opacity: 1;"/></g><g class="errorbar"><path class="xerror" d="M676.85,78v8m0,-4H615.97m0,-4v8" style="vector-effect: none; stroke-width: 2px; stroke: rgb(53, 102, 197); stroke-opacity: 1;"/></g><g class="errorbar"><path class="xerror" d="M608.71,129v8m0,-4H545.36m0,-4v8" style="vector-effect: none; stroke-width: 2px; stroke: rgb(53, 102, 197); stroke-opacity: 1;"/></g></g><g class="lines"/><g class="points"><path class="point" transform="translate(667.19,31)" d="M6,0A6,6 0 1,1 0,-6A6,6 0 0,1 6,0Z" style="opacity: 1; stroke-width: 0px; fill: rgb(53, 102, 197); fill-opacity: 1;"/><path class="point" transform="translate(646.17,82)" d="M6,0A6,6 0 1,1 0,-6A6,6 0 0,1 6,0Z" style="opacity: 1; stroke-width: 0px; fill: rgb(53, 102, 197); fill-opacity: 1;"/><path class="point" transform="translate(576.87,133)" d="M6,0A6,6 0 1,1 0,-6A6,6 0 0,1 6,0Z" style="opacity: 1; stroke-width: 0px; fill: rgb(53, 102, 197); fill-opacity: 1;"/></g><g class="text"/></g><g class="trace scatter tracebff42d" style="stroke-miterlimit: 2; opacity: 1;"><g class="fills"/><g class="errorbars"><g class="errorbar"><path class="xerror" d="M630.58,180v8m0,-4H562.7m0,-4v8" style="vector-effect: none; stroke-width: 2px; stroke: rgb(8, 127, 115); stroke-opacity: 1;"/></g><g class="errorbar"><path class="xerror" d="M582.01,231v8m0,-4H513.52m0,-4v8" style="vector-effect: none; stroke-width: 2px; stroke: rgb(8, 127, 115); stroke-opacity: 1;"/></g><g class="errorbar"><path class="xerror" d="M602.48,282v8m0,-4H534.82m0,-4v8" style="vector-effect: none; stroke-width: 2px; stroke: rgb(8, 127, 115); stroke-opacity: 1;"/></g></g><g class="lines"/><g class="points"><path class="point" transform="translate(595.38,184)" d="M6,0A6,6 0 1,1 0,-6A6,6 0 0,1 6,0Z" style="opacity: 1; stroke-width: 0px; fill: rgb(8, 127, 115); fill-opacity: 1;"/><path class="point" transform="translate(548.12,235)" d="M6,0A6,6 0 1,1 0,-6A6,6 0 0,1 6,0Z" style="opacity: 1; stroke-width: 0px; fill: rgb(8, 127, 115); fill-opacity: 1;"/><path class="point" transform="translate(568.7,286)" d="M6,0A6,6 0 1,1 0,-6A6,6 0 0,1 6,0Z" style="opacity: 1; stroke-width: 0px; fill: rgb(8, 127, 115); fill-opacity: 1;"/></g><g class="text"/></g><g class="trace scatter trace0a3dd0" style="stroke-miterlimit: 2; opacity: 1;"><g class="fills"/><g class="errorbars"><g class="errorbar"><path class="xerror" d="M631.74,333v8m0,-4H563.01m0,-4v8" style="vector-effect: none; stroke-width: 2px; stroke: rgb(139, 95, 191); stroke-opacity: 1;"/></g><g class="errorbar"><path class="xerror" d="M653.44,384v8m0,-4H585.3m0,-4v8" style="vector-effect: none; stroke-width: 2px; stroke: rgb(139, 95, 191); stroke-opacity: 1;"/></g><g class="errorbar"><path class="xerror" d="M655.25,435v8m0,-4H587.82m0,-4v8" style="vector-effect: none; stroke-width: 2px; stroke: rgb(139, 95, 191); stroke-opacity: 1;"/></g></g><g class="lines"/><g class="points"><path class="point" transform="translate(596.33,337)" d="M6,0A6,6 0 1,1 0,-6A6,6 0 0,1 6,0Z" style="opacity: 1; stroke-width: 0px; fill: rgb(139, 95, 191); fill-opacity: 1;"/><path class="point" transform="translate(618.84,388)" d="M6,0A6,6 0 1,1 0,-6A6,6 0 0,1 6,0Z" style="opacity: 1; stroke-width: 0px; fill: rgb(139, 95, 191); fill-opacity: 1;"/><path class="point" transform="translate(621.57,439)" d="M6,0A6,6 0 1,1 0,-6A6,6 0 0,1 6,0Z" style="opacity: 1; stroke-width: 0px; fill: rgb(139, 95, 191); fill-opacity: 1;"/></g><g class="text"/></g></g></g></g><g class="zerolinelayer-above"/><path class="xlines-above crisp" d="M0,0" style="fill: none;"/><path class="ylines-above crisp" d="M0,0" style="fill: none;"/><g class="overlines-above"/><g class="xaxislayer-above"><g class="xtick"><text text-anchor="middle" x="0" y="598" transform="translate(250,0)" style="font-family: Arial, sans-serif; font-size: 17px; fill: rgb(23, 43, 77); fill-opacity: 1; white-space: pre;">0</text></g><g class="xtick"><text text-anchor="middle" x="0" y="598" style="font-family: Arial, sans-serif; font-size: 17px; fill: rgb(23, 43, 77); fill-opacity: 1; white-space: pre;" transform="translate(403,0)">0.5</text></g><g class="xtick"><text text-anchor="middle" x="0" y="598" style="font-family: Arial, sans-serif; font-size: 17px; fill: rgb(23, 43, 77); fill-opacity: 1; white-space: pre;" transform="translate(556,0)">1</text></g><g class="xtick"><text text-anchor="middle" x="0" y="598" style="font-family: Arial, sans-serif; font-size: 17px; fill: rgb(23, 43, 77); fill-opacity: 1; white-space: pre;" transform="translate(709,0)">1.5</text></g><g class="xtick"><text text-anchor="middle" x="0" y="598" style="font-family: Arial, sans-serif; font-size: 17px; fill: rgb(23, 43, 77); fill-opacity: 1; white-space: pre;" transform="translate(862,0)">2</text></g><g class="xtick"><text text-anchor="middle" x="0" y="598" style="font-family: Arial, sans-serif; font-size: 17px; fill: rgb(23, 43, 77); fill-opacity: 1; white-space: pre;" transform="translate(1015,0)">2.5</text></g></g><g class="yaxislayer-above"><g class="ytick"><text text-anchor="end" x="249" y="5.949999999999999" transform="translate(0,549)" style="font-family: Arial, sans-serif; font-size: 17px; fill: rgb(23, 43, 77); fill-opacity: 1; white-space: pre;">Reference · 20260910</text></g><g class="ytick"><text text-anchor="end" x="249" y="5.949999999999999" transform="translate(0,498)" style="font-family: Arial, sans-serif; font-size: 17px; fill: rgb(23, 43, 77); fill-opacity: 1; white-space: pre;">Reference · 20260909</text></g><g class="ytick"><text text-anchor="end" x="249" y="5.949999999999999" transform="translate(0,447)" style="font-family: Arial, sans-serif; font-size: 17px; fill: rgb(23, 43, 77); fill-opacity: 1; white-space: pre;">Reference · 20260908</text></g><g class="ytick"><text text-anchor="end" x="249" y="5.949999999999999" transform="translate(0,396)" style="font-family: Arial, sans-serif; font-size: 17px; fill: rgb(23, 43, 77); fill-opacity: 1; white-space: pre;">Middle · 20260910</text></g><g class="ytick"><text text-anchor="end" x="249" y="5.949999999999999" transform="translate(0,345)" style="font-family: Arial, sans-serif; font-size: 17px; fill: rgb(23, 43, 77); fill-opacity: 1; white-space: pre;">Middle · 20260909</text></g><g class="ytick"><text text-anchor="end" x="249" y="5.949999999999999" transform="translate(0,294)" style="font-family: Arial, sans-serif; font-size: 17px; fill: rgb(23, 43, 77); fill-opacity: 1; white-space: pre;">Middle · 20260908</text></g><g class="ytick"><text text-anchor="end" x="249" y="5.949999999999999" transform="translate(0,243)" style="font-family: Arial, sans-serif; font-size: 17px; fill: rgb(23, 43, 77); fill-opacity: 1; white-space: pre;">Early · 20260910</text></g><g class="ytick"><text text-anchor="end" x="249" y="5.949999999999999" transform="translate(0,192)" style="font-family: Arial, sans-serif; font-size: 17px; fill: rgb(23, 43, 77); fill-opacity: 1; white-space: pre;">Early · 20260909</text></g><g class="ytick"><text text-anchor="end" x="249" y="5.949999999999999" transform="translate(0,141)" style="font-family: Arial, sans-serif; font-size: 17px; fill: rgb(23, 43, 77); fill-opacity: 1; white-space: pre;">Early · 20260908</text></g></g><g class="overaxes-above"/></g></g><g class="polarlayer"/><g class="smithlayer"/><g class="ternarylayer"/><g class="geolayer"/><g class="funnelarealayer"/><g class="pielayer"/><g class="iciclelayer"/><g class="treemaplayer"/><g class="sunburstlayer"/><g class="glimages"/><defs id="topdefs-6a642d"><g class="clips"/><clipPath id="legend6a642d"><rect width="284" height="33" x="0" y="0"/></clipPath></defs><g class="layer-above"><g class="imagelayer"/><g class="shapelayer"><g class="shape-group" data-index="0" clip-path="url(#clip6a642dx)"><path data-index="0" fill-rule="evenodd" d="M250,580L250,110" style="opacity: 1; stroke: rgb(100, 116, 139); stroke-opacity: 1; fill: rgb(0, 0, 0); fill-opacity: 0; stroke-dasharray: 3px, 3px; stroke-width: 2px;"/></g></g></g><g class="infolayer"><g class="legend" pointer-events="all" transform="translate(250,664.6)"><rect class="bg" shape-rendering="crispEdges" style="stroke: rgb(68, 68, 68); stroke-opacity: 1; fill: rgb(255, 255, 255); fill-opacity: 1; stroke-width: 0px;" width="284" height="33" x="0" y="0"/><g class="scrollbox" transform="" clip-path="url(#legend6a642d)"><g class="groups"><g class="traces" transform="translate(0,16.25)" style="opacity: 1;"><text class="legendtext" text-anchor="start" x="40" y="5.85" style="font-family: Arial, sans-serif; font-size: 15px; fill: rgb(23, 43, 77); fill-opacity: 1; white-space: pre;">Early</text><g class="layers" style="opacity: 1;"><g class="legendfill"/><g class="legendlines"/><g class="legendsymbols"><g class="legendpoints"><path class="scatterpts" transform="translate(20,0)" d="M6,0A6,6 0 1,1 0,-6A6,6 0 0,1 6,0Z" style="opacity: 1; stroke-width: 0px; fill: rgb(53, 102, 197); fill-opacity: 1;"/></g></g></g><rect class="legendtoggle" x="0" y="-11.25" width="77.1748046875" height="22.5" style="fill: rgb(0, 0, 0); fill-opacity: 0;"/></g><g class="traces" transform="translate(79.6748046875,16.25)" style="opacity: 1;"><text class="legendtext" text-anchor="start" x="40" y="5.85" style="font-family: Arial, sans-serif; font-size: 15px; fill: rgb(23, 43, 77); fill-opacity: 1; white-space: pre;">Middle</text><g class="layers" style="opacity: 1;"><g class="legendfill"/><g class="legendlines"/><g class="legendsymbols"><g class="legendpoints"><path class="scatterpts" transform="translate(20,0)" d="M6,0A6,6 0 1,1 0,-6A6,6 0 0,1 6,0Z" style="opacity: 1; stroke-width: 0px; fill: rgb(8, 127, 115); fill-opacity: 1;"/></g></g></g><rect class="legendtoggle" x="0" y="-11.25" width="86.6875" height="22.5" style="fill: rgb(0, 0, 0); fill-opacity: 0;"/></g><g class="traces" transform="translate(168.8623046875,16.25)" style="opacity: 1;"><text class="legendtext" text-anchor="start" x="40" y="5.85" style="font-family: Arial, sans-serif; font-size: 15px; fill: rgb(23, 43, 77); fill-opacity: 1; white-space: pre;">Reference</text><g class="layers" style="opacity: 1;"><g class="legendfill"/><g class="legendlines"/><g class="legendsymbols"><g class="legendpoints"><path class="scatterpts" transform="translate(20,0)" d="M6,0A6,6 0 1,1 0,-6A6,6 0 0,1 6,0Z" style="opacity: 1; stroke-width: 0px; fill: rgb(139, 95, 191); fill-opacity: 1;"/></g></g></g><rect class="legendtoggle" x="0" y="-11.25" width="111.71875" height="22.5" style="fill: rgb(0, 0, 0); fill-opacity: 0;"/></g></g></g><rect class="scrollbar" rx="20" ry="3" width="0" height="0" style="fill: rgb(128, 139, 164); fill-opacity: 1;" x="0" y="0"/></g><g class="g-gtitle"><text class="gtitle" x="33.6" y="44" text-anchor="start" dy="0.7em" style="opacity: 1; font-family: Arial, sans-serif; font-size: 24px; fill: rgb(23, 43, 77); fill-opacity: 1; white-space: pre;"><tspan class="line" dy="0em" x="33.6" y="44"><tspan style="font-weight:bold">Feature gains repeat across all nine audited runs</tspan></tspan><tspan class="line" dy="1.3em" x="33.6" y="44">​<tspan style="font-size:70%" dy="-0.6em">All planned outcomes retained · frozen seed policy</tspan><tspan dy="0.42em">​</tspan></tspan></text></g><g class="g-xtitle"><text class="xtitle" x="632.5" y="630.5" text-anchor="middle" style="opacity: 1; font-family: Arial, sans-serif; font-size: 20px; fill: rgb(23, 43, 77); fill-opacity: 1; white-space: pre;">Gain in weighted Recall@20 · percentage points</text></g><g class="g-ytitle"/></g></svg>