<svg xmlns="http://www.w3.org/2000/svg" width="900" height="440" viewBox="0 0 900 440" role="img"><title>Matched effects: no recent challenger earned promotion</title><rect width="100%" height="100%" fill="white"/><g font-family="Arial,sans-serif" fill="#172b4d" font-size="15"><text x="24" y="30" font-size="21" font-weight="bold">Matched effects: no recent challenger earned promotion</text><line x1="520.01" x2="520.01" y1="54" y2="364" stroke="#8190a5" stroke-dasharray="4 4"/><text x="24" y="85">Timing × training</text><line x1="487.90" x2="723.55" y1="80" y2="80" stroke="#385d8a" stroke-width="3"/><circle cx="601.90" cy="80" r="6" fill="#385d8a"/><text x="790" y="85">+0.911</text><text x="24" y="143">Later timing hybrid</text><line x1="473.98" x2="570.24" y1="138" y2="138" stroke="#385d8a" stroke-width="3"/><circle cx="522.68" cy="138" r="6" fill="#385d8a"/><text x="790" y="143">+0.030</text><text x="24" y="201">Two-hop retrieval</text><line x1="454.70" x2="510.21" y1="196" y2="196" stroke="#385d8a" stroke-width="3"/><circle cx="482.81" cy="196" r="6" fill="#385d8a"/><text x="790" y="201">-0.414</text><text x="24" y="259">Candidate-aware ranking</text><line x1="336.45" x2="465.32" y1="254" y2="254" stroke="#385d8a" stroke-width="3"/><circle cx="399.27" cy="254" r="6" fill="#385d8a"/><text x="790" y="259">-1.343</text><text x="24" y="317">Latent graph affinity</text><line x1="468.19" x2="561.78" y1="312" y2="312" stroke="#385d8a" stroke-width="3"/><circle cx="515.49" cy="312" r="6" fill="#385d8a"/><text x="790" y="317">-0.050</text><text x="336.45" y="391" text-anchor="middle" font-size="13">-2.04</text><text x="520.01" y="391" text-anchor="middle" font-size="13">+0.00</text><text x="723.55" y="391" text-anchor="middle" font-size="13">+2.26</text><text x="530" y="418" text-anchor="middle">Weighted recall difference (percentage points)</text></g></svg>